<svg id="svg" version="1.1" xmlns="http://www.w3.org/2000/svg" xmlns:xlink="http://www.w3.org/1999/xlink" width="400" height="397.0909090909091" viewBox="0, 0, 400,397.0909090909091"><g id="svgg"><path id="path0" d="M178.352 0.397 C 178.352 0.616,177.637 0.794,176.763 0.794 C 175.439 0.794,175.174 0.927,175.174 1.589 C 175.174 2.229,174.909 2.383,173.812 2.383 C 173.063 2.383,172.209 2.624,171.915 2.918 C 171.621 3.212,170.705 3.580,169.880 3.735 C 169.055 3.889,168.280 4.274,168.159 4.590 C 168.027 4.934,167.400 5.164,166.591 5.164 C 165.508 5.164,165.243 5.320,165.243 5.958 C 165.243 6.603,164.978 6.753,163.841 6.753 C 162.960 6.753,162.353 6.975,162.209 7.349 C 162.068 7.716,161.464 7.944,160.633 7.944 C 159.550 7.944,159.285 8.100,159.285 8.739 C 159.285 9.382,159.020 9.533,157.895 9.533 C 156.929 9.533,156.504 9.714,156.504 10.124 C 156.504 10.507,155.944 10.805,154.916 10.970 C 153.957 11.123,153.327 11.440,153.327 11.769 C 153.327 12.122,152.859 12.314,151.998 12.314 C 151.174 12.314,150.396 12.615,149.950 13.108 C 149.513 13.591,148.727 13.903,147.945 13.903 C 147.190 13.903,146.568 14.140,146.439 14.477 C 146.318 14.792,145.584 15.170,144.807 15.315 C 143.995 15.468,143.396 15.814,143.396 16.132 C 143.396 16.495,142.931 16.683,142.033 16.683 C 141.018 16.683,140.605 16.886,140.417 17.478 C 140.229 18.069,139.816 18.272,138.801 18.272 C 137.903 18.272,137.438 18.460,137.438 18.824 C 137.438 19.140,136.844 19.487,136.048 19.636 C 135.215 19.792,134.657 20.129,134.657 20.475 C 134.657 20.869,134.221 21.053,133.281 21.053 C 132.311 21.053,131.779 21.287,131.480 21.847 C 131.183 22.402,130.648 22.642,129.707 22.642 C 128.965 22.642,128.099 22.901,127.782 23.218 C 127.465 23.535,126.693 23.917,126.066 24.068 C 124.758 24.383,123.535 25.505,123.535 26.391 C 123.535 27.399,125.267 27.537,134.421 27.256 C 151.847 26.722,155.270 27.826,156.104 34.248 C 156.670 38.601,156.623 138.977,156.054 142.883 C 154.525 153.375,150.010 155.079,125.433 154.441 C 103.893 153.881,76.704 154.203,72.095 155.072 C 68.166 155.813,63.270 157.270,62.596 157.899 C 62.359 158.120,61.688 158.512,61.104 158.770 C 54.530 161.677,48.779 171.985,45.084 187.488 C 44.798 188.689,44.205 190.924,43.768 192.453 C 43.330 193.982,42.752 196.038,42.482 197.021 C 42.212 198.004,41.773 199.076,41.506 199.404 C 41.239 199.732,40.899 200.508,40.752 201.128 C 39.676 205.647,35.343 209.860,32.143 209.498 C 30.504 209.313,29.791 209.368,29.791 209.681 C 29.791 209.927,29.535 210.129,29.222 210.129 C 28.909 210.129,28.545 210.470,28.413 210.887 C 28.281 211.304,27.911 211.745,27.592 211.867 C 27.259 211.995,27.011 212.604,27.011 213.294 C 27.011 214.234,26.836 214.499,26.216 214.499 C 25.687 214.499,25.422 214.763,25.422 215.293 C 25.422 215.755,25.157 216.087,24.789 216.087 C 24.441 216.087,24.063 216.445,23.948 216.882 C 23.834 217.319,23.493 217.676,23.191 217.676 C 22.889 217.676,22.642 218.034,22.642 218.471 C 22.642 218.908,22.393 219.265,22.088 219.265 C 21.481 219.265,21.053 220.100,21.053 221.284 C 21.053 221.703,20.779 222.046,20.444 222.046 C 20.110 222.046,19.733 222.314,19.607 222.642 C 19.482 222.969,19.130 223.237,18.825 223.237 C 18.521 223.237,18.272 223.595,18.272 224.032 C 18.272 224.561,18.007 224.826,17.478 224.826 C 16.948 224.826,16.683 225.091,16.683 225.621 C 16.683 226.062,16.418 226.415,16.087 226.415 C 15.760 226.415,15.492 226.683,15.492 227.011 C 15.492 227.339,15.134 227.964,14.697 228.401 C 14.260 228.838,13.903 229.553,13.903 229.990 C 13.903 230.520,13.638 230.785,13.108 230.785 C 12.667 230.785,12.314 231.049,12.314 231.380 C 12.314 231.708,12.067 231.976,11.764 231.976 C 11.462 231.976,11.121 232.334,11.007 232.771 C 10.893 233.208,10.514 233.565,10.166 233.565 C 9.798 233.565,9.533 233.897,9.533 234.359 C 9.533 234.822,9.268 235.154,8.900 235.154 C 8.552 235.154,8.174 235.511,8.059 235.948 C 7.945 236.385,7.705 236.743,7.527 236.743 C 7.348 236.743,6.975 237.368,6.699 238.133 C 6.422 238.898,5.964 239.523,5.680 239.523 C 5.396 239.523,5.164 239.791,5.164 240.119 C 5.164 240.447,4.879 240.715,4.531 240.715 C 4.183 240.715,3.804 241.072,3.690 241.509 C 3.576 241.946,3.235 242.304,2.933 242.304 C 2.631 242.304,2.383 242.661,2.383 243.098 C 2.383 244.032,4.649 244.249,5.501 243.396 C 5.895 243.003,20.168 242.900,74.201 242.900 L 142.403 242.900 144.506 243.795 C 154.466 248.033,156.471 255.212,154.852 280.834 C 153.479 302.545,154.285 339.213,156.362 349.553 C 158.299 359.195,164.160 366.612,174.030 371.908 C 179.403 374.792,185.327 376.734,198.610 379.964 C 203.537 381.162,205.305 381.702,208.143 382.876 C 209.782 383.554,211.265 384.109,211.439 384.110 C 215.219 384.126,223.796 392.926,222.064 395.012 C 221.754 395.386,221.801 395.660,222.239 396.024 C 222.730 396.431,222.840 396.413,222.840 395.928 C 222.840 395.503,223.424 395.278,224.893 395.137 C 226.147 395.017,227.130 394.688,227.419 394.292 C 227.683 393.931,228.446 393.644,229.140 393.644 C 230.122 393.644,230.387 393.476,230.387 392.850 C 230.387 392.190,230.652 392.056,231.948 392.056 C 232.806 392.056,233.776 391.787,234.104 391.460 C 234.432 391.132,235.160 390.864,235.721 390.864 C 236.283 390.864,237.100 390.506,237.537 390.070 C 237.979 389.628,238.861 389.275,239.523 389.275 C 240.450 389.275,240.715 389.099,240.715 388.481 C 240.715 387.791,240.980 387.686,242.714 387.686 C 244.124 387.686,244.779 387.511,244.941 387.090 C 245.073 386.745,245.668 386.495,246.356 386.495 C 247.208 386.495,247.601 386.271,247.750 385.700 C 247.913 385.078,248.292 384.906,249.500 384.906 C 250.513 384.906,251.315 384.633,251.837 384.111 C 252.274 383.674,253.149 383.317,253.781 383.317 C 254.436 383.317,255.028 383.061,255.159 382.721 C 255.291 382.375,255.886 382.125,256.577 382.125 C 257.361 382.125,257.913 381.854,258.193 381.331 C 258.489 380.777,259.024 380.536,259.962 380.536 C 261.698 380.536,262.562 380.192,262.562 379.501 C 262.562 379.133,263.029 378.947,263.952 378.947 C 264.865 378.947,265.343 378.760,265.343 378.403 C 265.343 378.050,265.995 377.785,267.205 377.649 C 268.249 377.531,269.272 377.159,269.533 376.803 C 269.789 376.453,270.547 376.167,271.219 376.167 C 272.090 376.167,272.511 375.940,272.691 375.372 C 272.876 374.789,273.292 374.578,274.258 374.578 C 274.981 374.578,275.796 374.310,276.068 373.982 C 276.339 373.654,276.942 373.384,277.407 373.381 C 278.879 373.371,280.040 372.915,280.040 372.347 C 280.040 371.984,280.511 371.797,281.430 371.797 C 282.555 371.797,282.820 371.646,282.820 371.003 C 282.820 370.545,283.085 370.209,283.445 370.209 C 283.827 370.209,284.017 369.938,283.934 369.513 C 283.779 368.716,285.204 368.740,266.137 369.217 C 248.021 369.671,245.132 368.906,243.700 363.273 C 242.633 359.077,242.810 255.824,243.891 252.034 C 245.275 247.180,248.325 244.028,253.116 242.502 C 255.945 241.602,272.802 241.496,285.197 242.301 C 306.465 243.684,330.484 241.971,336.930 238.612 C 340.647 236.675,345.870 231.732,347.408 228.695 C 347.767 227.987,348.280 227.140,348.550 226.812 C 349.565 225.577,352.686 216.983,353.744 212.512 C 356.292 201.736,357.172 198.958,359.645 193.879 C 360.610 191.897,362.045 189.738,363.175 188.571 L 365.080 186.604 367.644 186.879 C 370.021 187.134,370.209 187.097,370.209 186.374 C 370.209 185.928,370.549 185.505,371.003 185.386 C 371.440 185.272,371.797 184.894,371.797 184.546 C 371.797 184.197,372.066 183.913,372.393 183.913 C 372.763 183.913,372.989 183.538,372.989 182.923 C 372.989 182.363,373.334 181.718,373.784 181.437 C 374.220 181.164,374.578 180.626,374.578 180.242 C 374.578 179.858,374.781 179.543,375.029 179.543 C 375.568 179.543,377.358 177.683,377.358 177.123 C 377.358 176.906,377.716 176.346,378.153 175.877 C 378.590 175.408,378.947 174.810,378.947 174.549 C 378.947 174.288,379.305 173.981,379.742 173.867 C 380.179 173.753,380.536 173.374,380.536 173.026 C 380.536 172.678,380.804 172.393,381.132 172.393 C 381.460 172.393,381.728 172.075,381.728 171.687 C 381.728 171.299,382.085 170.675,382.522 170.301 C 382.959 169.927,383.317 169.282,383.317 168.868 C 383.317 168.451,383.670 168.024,384.111 167.909 C 384.548 167.794,384.906 167.416,384.906 167.068 C 384.906 166.720,385.174 166.435,385.501 166.435 C 385.833 166.435,386.097 166.082,386.097 165.641 C 386.097 165.204,386.357 164.846,386.675 164.846 C 387.021 164.846,387.358 164.288,387.514 163.456 C 387.703 162.450,387.982 162.066,388.525 162.066 C 388.937 162.066,389.275 161.797,389.275 161.470 C 389.275 161.142,389.543 160.874,389.871 160.874 C 390.199 160.874,390.467 160.606,390.467 160.278 C 390.467 159.950,390.824 159.325,391.261 158.888 C 391.698 158.451,392.056 157.757,392.056 157.345 C 392.056 156.931,392.410 156.504,392.850 156.389 C 393.287 156.275,393.644 155.897,393.644 155.549 C 393.644 155.200,393.913 154.916,394.240 154.916 C 394.568 154.916,394.836 154.578,394.836 154.165 C 394.836 153.209,392.555 152.873,390.268 153.492 C 387.619 154.210,262.036 154.085,258.193 153.362 C 251.668 152.133,247.754 148.707,245.422 142.183 C 244.182 138.714,244.017 128.342,244.858 106.691 C 245.849 81.163,245.376 58.579,243.684 50.696 C 243.362 49.195,243.098 47.542,243.098 47.023 C 243.098 46.505,242.712 44.963,242.239 43.596 C 238.458 32.662,228.267 24.458,213.505 20.464 C 208.652 19.151,203.401 17.774,201.390 17.288 C 200.189 16.997,198.222 16.488,197.021 16.158 C 188.039 13.688,179.573 8.822,178.093 5.280 C 177.373 3.558,178.659 0.794,180.179 0.794 C 180.703 0.794,181.132 0.616,181.132 0.397 C 181.132 0.179,180.506 0.000,179.742 0.000 C 178.977 0.000,178.352 0.179,178.352 0.397 " stroke="none" fill="#fbfbfb" fill-rule="evenodd"></path><path id="path1" d="M118.097 26.301 C 117.499 26.961,116.292 27.011,100.820 27.011 C 86.400 27.011,84.155 27.090,83.957 27.607 C 83.778 28.072,82.977 28.204,80.295 28.208 C 76.348 28.214,75.074 28.466,75.074 29.242 C 75.074 29.657,74.401 29.791,72.321 29.791 C 69.916 29.791,69.535 29.892,69.315 30.586 C 69.113 31.220,68.714 31.380,67.330 31.380 C 66.320 31.380,65.350 31.629,65.002 31.976 C 64.674 32.304,64.140 32.572,63.815 32.572 C 62.790 32.572,61.966 33.033,61.966 33.608 C 61.966 33.978,61.494 34.161,60.539 34.161 C 59.445 34.161,59.063 34.347,58.904 34.955 C 58.759 35.509,58.362 35.750,57.593 35.750 C 56.979 35.750,56.389 36.014,56.262 36.346 C 56.136 36.673,55.765 36.941,55.439 36.941 C 55.112 36.941,54.659 37.287,54.433 37.709 C 54.207 38.132,53.531 38.534,52.930 38.603 C 52.318 38.674,51.837 38.974,51.837 39.285 C 51.837 39.590,51.569 39.948,51.241 40.079 C 50.277 40.465,48.858 41.843,48.858 42.392 C 48.858 42.671,48.500 42.900,48.064 42.900 C 47.534 42.900,47.269 43.165,47.269 43.694 C 47.269 44.131,47.046 44.492,46.773 44.495 C 46.167 44.504,44.489 46.218,44.489 46.829 C 44.489 47.071,44.216 47.269,43.883 47.269 C 43.526 47.269,43.178 47.765,43.036 48.475 C 42.903 49.138,42.461 49.859,42.053 50.078 C 41.645 50.296,41.311 50.718,41.311 51.014 C 41.311 51.311,41.043 51.656,40.715 51.782 C 40.387 51.908,40.119 52.285,40.119 52.619 C 40.119 52.954,39.762 53.585,39.325 54.022 C 38.888 54.459,38.530 55.174,38.530 55.611 C 38.530 56.048,38.276 56.405,37.966 56.405 C 37.652 56.405,37.277 56.977,37.121 57.696 C 36.966 58.406,36.595 59.340,36.295 59.771 C 35.995 60.202,35.750 61.128,35.750 61.829 C 35.750 62.755,35.532 63.173,34.955 63.357 C 34.318 63.559,34.161 63.958,34.161 65.369 C 34.161 66.600,33.922 67.369,33.366 67.925 C 32.749 68.542,32.572 69.249,32.572 71.102 C 32.572 72.956,32.440 73.486,31.976 73.486 C 31.467 73.486,30.995 79.387,31.333 81.529 C 31.359 81.693,31.131 81.827,30.827 81.827 C 29.824 81.827,29.791 82.833,29.791 113.904 C 29.791 142.699,29.746 144.774,29.096 145.492 C 28.447 146.209,28.401 148.220,28.401 175.712 C 28.401 205.007,28.448 206.570,29.330 206.864 C 29.584 206.948,29.791 207.539,29.791 208.176 C 29.791 209.111,29.964 209.335,30.685 209.339 C 31.177 209.341,32.222 209.450,33.007 209.580 C 35.250 209.951,39.846 204.936,40.752 201.128 C 40.899 200.508,41.239 199.732,41.506 199.404 C 41.773 199.076,42.212 198.004,42.482 197.021 C 42.752 196.038,43.330 193.982,43.768 192.453 C 44.205 190.924,44.798 188.689,45.084 187.488 C 47.558 177.106,49.168 172.808,52.669 167.236 C 54.384 164.507,59.310 159.564,61.104 158.770 C 61.688 158.512,62.359 158.120,62.596 157.899 C 63.270 157.270,68.166 155.813,72.095 155.072 C 76.704 154.203,103.893 153.881,125.433 154.441 C 150.010 155.079,154.525 153.375,156.054 142.883 C 156.623 138.977,156.670 38.601,156.104 34.248 C 155.270 27.826,151.847 26.722,134.421 27.256 C 124.826 27.550,123.535 27.425,123.535 26.198 C 123.535 25.101,119.106 25.185,118.097 26.301 " stroke="none" fill="#5c8ccb" fill-rule="evenodd"></path><path id="path2" d="M181.132 0.397 C 181.132 0.616,180.703 0.794,180.179 0.794 C 178.659 0.794,177.373 3.558,178.093 5.280 C 179.573 8.822,188.039 13.688,197.021 16.158 C 198.222 16.488,200.189 16.997,201.390 17.288 C 203.401 17.774,208.652 19.151,213.505 20.464 C 216.984 21.405,218.994 22.116,221.847 23.413 C 225.697 25.163,226.833 25.789,229.893 27.851 C 236.585 32.360,243.098 41.817,243.098 47.023 C 243.098 47.542,243.362 49.195,243.684 50.696 C 245.376 58.579,245.849 81.163,244.858 106.691 C 243.389 144.493,244.882 150.130,257.188 153.250 C 260.300 154.040,377.105 154.454,386.097 153.708 C 389.047 153.463,392.577 153.289,393.942 153.320 C 395.872 153.365,396.425 153.250,396.425 152.803 C 396.425 152.487,396.783 152.134,397.219 152.020 C 397.828 151.861,398.014 151.478,398.014 150.385 C 398.014 149.381,398.191 148.957,398.610 148.957 C 399.134 148.957,399.206 145.249,399.206 117.962 C 399.206 90.777,399.132 86.938,398.610 86.737 C 398.099 86.542,398.013 84.875,398.008 75.131 C 398.003 63.331,397.896 61.966,396.975 61.966 C 396.547 61.966,396.425 61.170,396.425 58.391 C 396.425 55.346,396.307 54.699,395.631 54.022 C 395.029 53.420,394.836 52.698,394.836 51.043 C 394.836 49.366,394.698 48.858,394.240 48.858 C 393.789 48.858,393.644 48.368,393.644 46.835 C 393.644 45.145,393.513 44.777,392.850 44.604 C 392.231 44.442,392.056 44.062,392.056 42.886 C 392.056 40.990,391.730 40.119,391.020 40.119 C 390.652 40.119,390.467 39.652,390.467 38.729 C 390.467 37.807,390.281 37.339,389.915 37.339 C 389.598 37.339,389.251 36.740,389.099 35.927 C 388.953 35.151,388.576 34.417,388.260 34.296 C 387.944 34.175,387.686 33.739,387.686 33.327 C 387.686 32.916,387.329 32.355,386.892 32.083 C 386.455 31.810,386.097 31.183,386.097 30.689 C 386.097 30.156,385.855 29.791,385.501 29.791 C 385.174 29.791,384.906 29.530,384.906 29.210 C 384.906 28.890,384.548 28.436,384.111 28.203 C 383.635 27.947,383.317 27.371,383.317 26.761 C 383.317 26.079,383.056 25.677,382.522 25.537 C 382.085 25.423,381.728 25.082,381.728 24.780 C 381.728 24.478,381.481 24.230,381.178 24.230 C 380.876 24.230,380.535 23.873,380.421 23.436 C 380.307 22.999,379.929 22.642,379.580 22.642 C 379.212 22.642,378.947 22.309,378.947 21.847 C 378.947 21.317,378.683 21.053,378.153 21.053 C 377.712 21.053,377.358 20.788,377.358 20.457 C 377.358 20.129,377.111 19.861,376.809 19.861 C 376.507 19.861,376.166 19.503,376.052 19.067 C 375.937 18.630,375.580 18.272,375.257 18.272 C 374.935 18.272,374.577 17.915,374.463 17.478 C 374.349 17.041,373.970 16.683,373.622 16.683 C 373.274 16.683,372.989 16.435,372.989 16.132 C 372.989 15.816,372.395 15.469,371.599 15.319 C 370.767 15.163,370.209 14.826,370.209 14.481 C 370.209 14.163,369.872 13.903,369.460 13.903 C 369.046 13.903,368.620 13.548,368.505 13.108 C 368.353 12.530,367.963 12.314,367.068 12.314 C 366.240 12.314,365.839 12.119,365.839 11.718 C 365.839 11.387,365.486 11.122,365.045 11.122 C 364.608 11.122,363.893 10.765,363.456 10.328 C 363.019 9.891,362.332 9.533,361.928 9.533 C 361.525 9.533,360.872 9.176,360.477 8.739 C 360.031 8.246,359.253 7.944,358.429 7.944 C 357.513 7.944,357.100 7.759,357.100 7.349 C 357.100 6.983,356.729 6.753,356.140 6.753 C 354.768 6.753,353.923 6.358,353.923 5.717 C 353.923 5.313,353.347 5.164,351.784 5.164 C 349.980 5.164,349.613 5.040,349.438 4.369 C 349.257 3.676,348.896 3.575,346.611 3.575 C 344.548 3.575,343.992 3.449,343.992 2.979 C 343.992 2.494,343.335 2.383,340.463 2.383 C 337.269 2.383,336.915 2.308,336.727 1.589 C 336.531 0.839,336.185 0.794,330.524 0.794 C 326.792 0.794,324.528 0.644,324.528 0.397 C 324.528 0.134,300.364 0.000,252.830 0.000 C 205.296 0.000,181.132 0.134,181.132 0.397 M363.132 188.616 C 360.582 191.250,358.140 196.260,356.227 202.781 C 355.462 205.389,355.001 207.199,353.744 212.512 C 352.686 216.983,349.565 225.577,348.550 226.812 C 348.280 227.140,347.767 227.987,347.408 228.695 C 345.870 231.732,340.647 236.675,336.930 238.612 C 330.484 241.971,306.465 243.684,285.197 242.301 C 258.776 240.584,249.912 241.792,245.793 247.671 C 242.966 251.706,243.098 248.746,243.098 307.860 C 243.098 366.751,242.999 364.419,245.607 366.864 C 248.301 369.391,263.412 370.212,280.558 368.764 C 283.503 368.515,283.669 368.544,283.881 369.355 C 284.174 370.475,298.709 370.728,298.709 369.613 C 298.709 369.099,300.091 369.016,308.739 369.011 C 319.199 369.006,320.556 368.887,320.556 367.978 C 320.556 367.559,321.259 367.428,323.503 367.428 C 326.796 367.428,327.706 367.204,327.706 366.392 C 327.706 365.986,328.290 365.839,329.903 365.839 C 331.490 365.839,332.164 365.674,332.329 365.243 C 332.466 364.885,333.066 364.647,333.831 364.647 C 334.554 364.647,335.471 364.305,335.956 363.853 C 336.433 363.409,337.358 363.059,338.054 363.059 C 338.966 363.059,339.356 362.846,339.508 362.264 C 339.655 361.699,340.049 361.470,340.873 361.470 C 341.510 361.470,342.127 361.219,342.245 360.913 C 342.362 360.607,342.803 360.266,343.225 360.156 C 343.647 360.045,343.992 359.670,343.992 359.322 C 343.992 358.879,344.361 358.689,345.221 358.689 C 346.116 358.689,346.506 358.473,346.657 357.895 C 346.772 357.455,347.199 357.100,347.613 357.100 C 348.025 357.100,348.361 356.853,348.361 356.551 C 348.361 356.249,348.719 355.908,349.156 355.794 C 349.593 355.679,349.950 355.301,349.950 354.953 C 349.950 354.605,350.218 354.320,350.546 354.320 C 350.877 354.320,351.142 353.967,351.142 353.525 C 351.142 352.996,351.407 352.731,351.936 352.731 C 352.373 352.731,352.731 352.484,352.731 352.181 C 352.731 351.879,353.088 351.538,353.525 351.424 C 353.962 351.310,354.320 350.932,354.320 350.583 C 354.320 350.235,354.588 349.950,354.916 349.950 C 355.247 349.950,355.511 349.597,355.511 349.156 C 355.511 348.626,355.776 348.361,356.306 348.361 C 356.747 348.361,357.100 348.097,357.100 347.766 C 357.100 347.438,357.458 346.812,357.895 346.375 C 358.332 345.938,358.689 345.223,358.689 344.786 C 358.689 344.345,358.954 343.992,359.285 343.992 C 359.679 343.992,359.881 343.598,359.881 342.827 C 359.881 342.011,360.119 341.587,360.675 341.410 C 361.112 341.271,361.470 340.821,361.470 340.410 C 361.470 339.999,361.757 339.501,362.108 339.305 C 362.491 339.090,362.828 338.212,362.954 337.101 C 363.089 335.903,363.353 335.253,363.706 335.253 C 364.060 335.253,364.250 334.782,364.250 333.909 C 364.250 332.899,364.448 332.514,365.045 332.358 C 365.707 332.184,365.839 331.816,365.839 330.146 C 365.839 328.662,366.017 328.043,366.525 327.759 C 367.057 327.461,367.245 326.694,367.364 324.333 C 367.471 322.217,367.686 321.227,368.069 321.080 C 368.492 320.917,368.620 319.864,368.620 316.541 C 368.620 312.744,368.717 312.117,369.414 311.420 C 370.202 310.632,370.209 310.096,370.209 248.912 L 370.209 187.198 368.366 186.946 C 365.334 186.530,365.069 186.615,363.132 188.616 M7.547 242.990 C 6.564 243.077,5.590 243.316,5.382 243.521 C 5.175 243.725,4.058 243.893,2.900 243.893 L 0.794 243.893 0.794 245.283 C 0.794 246.048,0.616 246.673,0.397 246.673 C 0.136 246.673,0.000 257.597,0.000 278.649 C 0.000 299.702,0.136 310.626,0.397 310.626 C 0.653 310.626,0.794 314.922,0.794 322.721 C 0.794 333.183,0.877 334.863,1.404 335.158 C 1.847 335.406,2.082 336.455,2.260 338.987 C 2.428 341.359,2.677 342.541,3.041 342.680 C 3.412 342.823,3.575 343.670,3.575 345.462 C 3.575 347.705,3.678 348.066,4.369 348.246 C 5.040 348.422,5.164 348.788,5.164 350.593 C 5.164 352.140,5.314 352.731,5.709 352.731 C 6.035 352.731,6.353 353.350,6.500 354.268 C 6.635 355.114,7.015 356.029,7.345 356.303 C 7.675 356.577,7.944 357.211,7.944 357.712 C 7.944 359.038,8.347 359.881,8.980 359.881 C 9.331 359.881,9.533 360.321,9.533 361.085 C 9.533 361.755,9.782 362.384,10.093 362.504 C 10.401 362.622,10.762 363.153,10.895 363.683 C 11.028 364.214,11.402 364.647,11.726 364.647 C 12.118 364.647,12.314 365.056,12.314 365.876 C 12.314 366.771,12.530 367.162,13.108 367.313 C 13.545 367.427,13.903 367.774,13.903 368.083 C 13.903 368.392,14.160 368.743,14.474 368.864 C 14.789 368.985,15.160 369.605,15.300 370.242 C 15.440 370.879,15.809 371.400,16.119 371.400 C 16.429 371.400,16.683 371.758,16.683 372.195 C 16.683 372.657,16.948 372.989,17.316 372.989 C 17.664 372.989,18.043 373.347,18.157 373.784 C 18.271 374.220,18.629 374.578,18.951 374.578 C 19.274 374.578,19.632 374.935,19.746 375.372 C 19.860 375.809,20.201 376.167,20.503 376.167 C 20.805 376.167,21.053 376.423,21.053 376.736 C 21.053 377.049,21.410 377.418,21.847 377.557 C 22.284 377.696,22.642 378.065,22.642 378.378 C 22.642 378.691,22.999 378.947,23.436 378.947 C 23.873 378.947,24.230 379.207,24.230 379.525 C 24.230 379.842,24.856 380.399,25.621 380.761 C 26.385 381.124,27.011 381.580,27.011 381.773 C 27.011 381.967,27.279 382.125,27.607 382.125 C 27.934 382.125,28.203 382.309,28.203 382.535 C 28.203 382.760,28.502 383.059,28.867 383.200 C 29.233 383.340,29.859 383.781,30.258 384.180 C 30.657 384.579,31.298 384.906,31.682 384.906 C 32.066 384.906,32.604 385.263,32.877 385.700 C 33.194 386.207,33.803 386.495,34.561 386.495 C 35.353 386.495,35.750 386.694,35.750 387.090 C 35.750 387.507,36.169 387.686,37.140 387.686 C 38.265 387.686,38.530 387.838,38.530 388.481 C 38.530 389.113,38.795 389.275,39.825 389.275 C 40.690 389.275,41.285 389.539,41.616 390.070 C 41.937 390.583,42.542 390.864,43.329 390.864 C 43.998 390.864,44.813 391.132,45.141 391.460 C 45.469 391.787,46.366 392.056,47.136 392.056 C 47.933 392.056,48.968 392.397,49.544 392.850 C 50.269 393.420,51.155 393.644,52.685 393.644 C 54.235 393.644,54.816 393.794,54.816 394.194 C 54.816 394.932,56.068 395.221,59.285 395.228 C 61.401 395.232,61.966 395.359,61.966 395.829 C 61.966 396.335,62.959 396.425,68.520 396.425 C 72.625 396.425,75.074 396.573,75.074 396.822 C 75.074 397.528,221.172 397.355,221.878 396.649 C 222.257 396.271,222.307 395.991,222.029 395.819 C 221.737 395.639,221.744 395.399,222.050 395.030 C 223.795 392.927,215.242 384.126,211.439 384.110 C 211.265 384.109,209.782 383.554,208.143 382.876 C 205.305 381.702,203.537 381.162,198.610 379.964 C 185.327 376.734,179.403 374.792,174.030 371.908 C 164.160 366.612,158.299 359.195,156.362 349.553 C 154.285 339.213,153.479 302.545,154.852 280.834 C 156.471 255.212,154.466 248.033,144.506 243.795 L 142.403 242.900 75.869 242.865 C 39.275 242.846,8.530 242.902,7.547 242.990 " stroke="none" fill="#74bc44" fill-rule="evenodd"></path></g></svg>